<svg width="500" height="390" viewBox="0 0 500 390" fill="none" xmlns="http://www.w3.org/2000/svg">
<g clip-path="url(#clip0_4_48)">
<path fill-rule="evenodd" clip-rule="evenodd" d="M144.217 123.305C148.751 139.84 160.884 184.087 120.997 184.087C89.0711 184.087 110.355 19.1354 155.584 8.49332C200.812 -2.1487 269.986 162.803 227.418 173.445C198.972 180.556 197.257 150.246 196.074 129.351C195.487 118.976 195.031 110.923 191.501 110.923C182.987 110.923 153.496 115.764 142.854 117.538C142.854 118.336 143.417 120.39 144.217 123.305ZM141.503 95.0102L192.053 89.6892C191.737 88.5825 191.378 87.2645 190.974 85.7811C186.634 69.8467 177.099 34.8382 159.575 37.7589C141.343 40.7974 141.446 75.0006 141.498 92.4854C141.501 93.3721 141.503 94.2158 141.503 95.0102Z" fill="#222222"/>
<path d="M144.217 123.305L141.531 124.042V124.042L144.217 123.305ZM155.584 8.49332L156.222 11.2042L155.584 8.49332ZM227.418 173.445L226.742 170.743L227.418 173.445ZM196.074 129.351L198.855 129.193L196.074 129.351ZM142.854 117.538L142.396 114.791C141.053 115.015 140.069 116.176 140.069 117.538H142.854ZM192.053 89.6892L192.345 92.4588C193.163 92.3727 193.901 91.9292 194.361 91.2474C194.821 90.5656 194.957 89.7152 194.731 88.9242L192.053 89.6892ZM141.503 95.0102H138.719C138.719 95.7996 139.054 96.5518 139.64 97.0799C140.227 97.6081 141.01 97.8624 141.795 97.7798L141.503 95.0102ZM190.974 85.7811L188.287 86.513L190.974 85.7811ZM159.575 37.7589L160.032 40.5059L159.575 37.7589ZM141.498 92.4854L138.713 92.4938L141.498 92.4854ZM120.997 186.872C131.496 186.872 139.004 183.946 144.06 178.883C149.072 173.865 151.303 167.116 152.034 160.189C153.485 146.449 149.143 130.739 146.902 122.569L141.531 124.042C143.825 132.407 147.816 147.087 146.495 159.604C145.841 165.805 143.91 171.152 140.12 174.947C136.374 178.697 130.442 181.302 120.997 181.302V186.872ZM154.946 5.78249C148.531 7.29183 142.78 11.4741 137.709 17.2577C132.628 23.0524 128.079 30.6219 124.082 39.2489C116.089 56.5052 110.128 78.3821 106.609 99.83C103.092 121.268 101.979 142.494 103.805 158.463C104.715 166.419 106.378 173.299 108.998 178.275C111.626 183.268 115.545 186.872 120.997 186.872V181.302C118.468 181.302 116.069 179.751 113.926 175.681C111.775 171.595 110.217 165.505 109.339 157.83C107.59 142.539 108.639 121.861 112.106 100.732C115.571 79.6114 121.416 58.2551 129.136 41.59C132.997 33.2561 137.281 26.1929 141.897 20.9299C146.521 15.6557 151.329 12.3553 156.222 11.2042L154.946 5.78249ZM228.093 176.146C234.494 174.546 238.672 170.006 241.011 163.855C243.309 157.809 243.906 150.073 243.29 141.486C242.054 124.273 235.867 102.673 226.985 81.893C218.098 61.1006 206.405 40.8764 193.984 26.4629C187.777 19.2601 181.294 13.3979 174.785 9.67224C168.27 5.94314 161.51 4.23798 154.946 5.78249L156.222 11.2042C160.965 10.0882 166.26 11.2098 172.018 14.5061C177.783 17.8058 183.792 23.1676 189.765 30.0988C201.704 43.9532 213.125 63.6366 221.864 84.082C230.608 104.54 236.559 125.508 237.734 141.884C238.324 150.091 237.694 156.905 235.805 161.875C233.955 166.74 230.983 169.683 226.742 170.743L228.093 176.146ZM193.294 129.508C193.876 139.8 194.596 153.17 198.978 163.031C201.204 168.041 204.484 172.413 209.404 174.966C214.346 177.53 220.522 178.039 228.093 176.146L226.742 170.743C220.09 172.406 215.385 171.794 211.969 170.021C208.53 168.238 205.974 165.06 204.067 160.769C200.184 152.03 199.455 139.796 198.855 129.193L193.294 129.508ZM191.501 113.708C191.072 113.708 190.989 113.366 191.232 113.773C191.525 114.262 191.859 115.204 192.155 116.766C192.742 119.854 192.996 124.244 193.294 129.508L198.855 129.193C198.566 124.083 198.298 119.259 197.627 115.727C197.295 113.979 196.816 112.259 196.012 110.914C195.159 109.487 193.695 108.138 191.501 108.138V113.708ZM143.312 120.285C148.629 119.399 158.64 117.749 168.379 116.321C178.22 114.878 187.492 113.708 191.501 113.708V108.138C186.995 108.138 177.265 109.389 167.571 110.81C157.776 112.246 147.721 113.903 142.396 114.791L143.312 120.285ZM146.902 122.569C146.499 121.097 146.17 119.896 145.94 118.961C145.681 117.91 145.639 117.537 145.639 117.538H140.069C140.069 118.336 140.309 119.389 140.531 120.293C140.783 121.314 141.135 122.597 141.531 124.042L146.902 122.569ZM191.762 86.9197L141.212 92.2407L141.795 97.7798L192.345 92.4588L191.762 86.9197ZM188.287 86.513C188.689 87.9909 189.053 89.3274 189.375 90.4543L194.731 88.9242C194.42 87.8375 194.066 86.538 193.661 85.0493L188.287 86.513ZM160.032 40.5059C163.334 39.9557 166.391 41.1181 169.388 43.8483C172.442 46.6292 175.228 50.874 177.721 55.9308C182.699 66.0289 186.105 78.5018 188.287 86.513L193.661 85.0493C191.503 77.1261 187.971 64.1275 182.716 53.4679C180.092 48.1459 176.938 43.1903 173.139 39.7305C169.284 36.2201 164.578 34.1018 159.117 35.0119L160.032 40.5059ZM144.283 92.4771C144.257 83.6827 144.229 71.0481 146.41 60.2565C147.5 54.8612 149.104 50.1436 151.383 46.6565C153.622 43.2304 156.423 41.1074 160.032 40.5059L159.117 35.0119C153.61 35.9297 149.588 39.2215 146.72 43.6095C143.893 47.9365 142.107 53.4322 140.95 59.1531C138.638 70.594 138.687 83.8033 138.713 92.4938L144.283 92.4771ZM144.288 95.0102C144.288 94.2109 144.286 93.3628 144.283 92.4771L138.713 92.4938C138.716 93.3814 138.719 94.2207 138.719 95.0102H144.288Z" fill="#222222"/>
<path d="M274.318 172.994C246.86 172.684 261.644 64.3437 261.956 58.5832C264.645 30.9834 303.008 26.0892 280.191 70.6775C329.405 34.9047 364.432 88.4769 341.881 98.4652C322.853 106.893 319.061 66.0623 288.98 95.6018C267.219 116.971 301.776 173.304 274.318 172.994Z" fill="#222222" stroke="#222222" stroke-width="5.56972" stroke-linejoin="round"/>
<path d="M360.915 184.374C330.311 184.374 365.556 103.614 386.396 72.0518C348.336 64.6255 348.163 55.2075 368.884 37.4471C389.605 19.6866 485.241 74.5826 472.489 106.874C459.738 139.166 435.595 102.685 414.244 86.9044C386.396 110.112 399.169 184.374 360.915 184.374Z" fill="#222222" stroke="#222222" stroke-width="5.56972" stroke-linejoin="round"/>
<path d="M213.238 367.163C180.5 350.433 175 167.191 215.097 202.932C230.085 216.292 220.781 237.755 218.301 263.317C217.302 273.626 239.674 280.575 244.578 261.923C254.237 225.181 276.281 185.242 325.605 193.129C374.928 201.016 275.87 252.23 264.981 271.191C254.091 290.151 323.259 348.195 281.081 350.433C238.904 352.671 258.286 314.04 229.35 298.82C203.739 285.349 258.393 390.24 213.238 367.163Z" fill="#222222" stroke="#222222" stroke-width="5.56972" stroke-linejoin="round"/>
<path d="M327.725 359.375C348.135 362.558 356.381 301.494 357.953 270.564C360.212 245.199 331.196 247.114 332.185 272.81C333.327 302.495 294.717 354.228 327.725 359.375Z" fill="#222222" stroke="#222222" stroke-width="5.56972" stroke-linejoin="round"/>
<path fill-rule="evenodd" clip-rule="evenodd" d="M390.582 263.356C377.554 311.93 367.379 349.868 386.401 355.268C441.441 370.893 481.646 363.27 483.605 305.181C486.377 222.995 414.332 163.288 404.308 208.804C400.152 227.672 395.189 246.179 390.582 263.356ZM421.315 233.58C430.287 219.029 468.499 262.462 460.579 301.401C450.809 349.437 405.999 336.417 401.457 327.093C404.383 320.885 406.271 306.644 408.368 290.822C411.234 269.21 414.49 244.65 421.315 233.58Z" fill="#222222"/>
<path d="M386.401 355.268L387.161 352.589L387.161 352.589L386.401 355.268ZM390.582 263.356L393.272 264.077L390.582 263.356ZM483.605 305.181L486.389 305.275L483.605 305.181ZM404.308 208.804L401.588 208.205L404.308 208.804ZM460.579 301.401L463.308 301.956L460.579 301.401ZM421.315 233.58L418.945 232.119L418.945 232.119L421.315 233.58ZM401.457 327.093L398.938 325.906C398.578 326.669 398.584 327.554 398.953 328.313L401.457 327.093ZM408.368 290.822L405.608 290.456L408.368 290.822ZM387.161 352.589C383.511 351.553 381.172 349.031 379.865 344.661C378.509 340.127 378.356 333.808 379.241 325.808C381.006 309.838 386.734 288.451 393.272 264.077L387.892 262.634C381.401 286.835 375.528 308.704 373.705 325.196C372.795 333.427 372.85 340.641 374.529 346.257C376.257 352.038 379.78 356.283 385.64 357.947L387.161 352.589ZM480.822 305.087C480.342 319.31 477.527 330.201 472.909 338.336C468.316 346.425 461.867 351.925 453.83 355.3C437.573 362.128 414.556 360.366 387.161 352.589L385.64 357.947C413.286 365.795 437.891 368.035 455.987 360.435C465.126 356.597 472.535 350.275 477.752 341.086C482.943 331.942 485.889 320.097 486.389 305.275L480.822 305.087ZM407.027 209.403C408.196 204.095 410.197 200.656 412.542 198.601C414.842 196.585 417.719 195.68 421.152 195.884C428.236 196.303 437.475 201.472 446.756 211.043C465.174 230.038 482.181 264.788 480.822 305.087L486.389 305.275C487.801 263.389 470.172 227.192 450.754 207.166C441.117 197.227 430.638 190.866 421.481 190.324C416.794 190.046 412.419 191.302 408.871 194.412C405.369 197.482 402.925 202.134 401.588 208.205L407.027 209.403ZM393.272 264.077C397.876 246.909 402.856 228.343 407.027 209.403L401.588 208.205C397.448 227.002 392.501 245.449 387.892 262.634L393.272 264.077ZM463.308 301.956C467.471 281.489 459.514 260.124 449.567 245.84C444.593 238.698 438.933 233.048 433.706 230.131C431.102 228.678 428.351 227.761 425.713 227.941C422.904 228.133 420.525 229.556 418.945 232.119L423.686 235.042C424.348 233.967 425.126 233.564 426.093 233.498C427.231 233.42 428.876 233.814 430.992 234.995C435.206 237.346 440.286 242.259 444.996 249.023C454.418 262.552 461.607 282.373 457.85 300.846L463.308 301.956ZM398.953 328.313C399.823 330.097 401.464 331.653 403.323 332.931C405.236 334.246 407.622 335.434 410.301 336.39C415.655 338.3 422.423 339.371 429.395 338.521C436.396 337.667 443.64 334.867 449.781 329.006C455.919 323.147 460.777 314.402 463.308 301.956L457.85 300.846C455.496 312.418 451.089 320.058 445.935 324.977C440.785 329.893 434.71 332.262 428.72 332.992C422.7 333.726 416.804 332.797 412.173 331.144C409.86 330.319 407.924 329.335 406.479 328.342C404.98 327.311 404.227 326.42 403.961 325.874L398.953 328.313ZM405.608 290.456C404.557 298.384 403.568 305.838 402.48 312.085C401.377 318.417 400.221 323.183 398.938 325.906L403.976 328.28C405.618 324.796 406.87 319.337 407.967 313.041C409.078 306.659 410.082 299.082 411.129 291.188L405.608 290.456ZM418.945 232.119C415.244 238.12 412.652 247.472 410.625 257.707C408.579 268.035 407.038 279.671 405.608 290.456L411.129 291.188C412.564 280.362 414.084 268.911 416.089 258.789C418.112 248.573 420.561 240.11 423.686 235.042L418.945 232.119Z" fill="#222222"/>
<circle cx="353.583" cy="227.583" r="11.0825" transform="rotate(-3.03747 353.583 227.583)" fill="#222222" stroke="#222222" stroke-width="5.56972" stroke-linejoin="round"/>
<path d="M136.656 262.023C133.57 263.976 129.835 264.623 126.272 263.822C122.709 263.021 119.61 260.837 117.657 257.751C115.704 254.665 115.057 250.93 115.858 247.367C116.659 243.804 118.843 240.705 121.928 238.752C125.014 236.799 128.75 236.152 132.313 236.953C135.876 237.754 138.974 239.938 140.927 243.024C142.88 246.11 143.527 249.845 142.726 253.408C141.925 256.971 139.742 260.07 136.656 262.023ZM93.7489 245.723C90.663 247.676 86.9278 248.323 83.3648 247.522C79.8018 246.721 76.703 244.537 74.7501 241.451C72.7971 238.365 72.15 234.63 72.9511 231.067C73.7522 227.504 75.9358 224.405 79.0217 222.452C82.1076 220.499 85.8428 219.852 89.4058 220.653C92.9688 221.454 96.0676 223.638 98.0205 226.724C99.9735 229.81 100.621 233.545 99.8195 237.108C99.0184 240.671 96.8348 243.77 93.7489 245.723ZM54.9647 270.268C51.8789 272.221 48.1436 272.868 44.5806 272.067C41.0176 271.266 37.9188 269.082 35.9659 265.996C34.0129 262.91 33.3658 259.175 34.1669 255.612C34.968 252.049 37.1517 248.95 40.2375 246.997C43.3234 245.045 47.0587 244.397 50.6216 245.199C54.1846 246 57.2834 248.183 59.2364 251.269C61.1893 254.355 61.8364 258.09 61.0353 261.653C60.2343 265.216 58.0506 268.315 54.9647 270.268ZM51.3305 316.022C48.2446 317.975 44.5093 318.623 40.9464 317.821C37.3834 317.02 34.2846 314.837 32.3316 311.751C30.3787 308.665 29.7316 304.93 30.5327 301.367C31.3338 297.804 33.5174 294.705 36.6033 292.752C39.6891 290.799 43.4244 290.152 46.9874 290.953C50.5504 291.754 53.6492 293.938 55.6021 297.024C57.5551 300.11 58.2022 303.845 57.4011 307.408C56.6 310.971 54.4163 314.07 51.3305 316.022ZM49.8115 219.211C31.2963 230.929 18.1943 249.522 13.3878 270.9C8.58124 292.277 12.4639 314.689 24.1816 333.204C35.8992 351.719 54.4921 364.821 75.8699 369.628C97.2478 374.434 119.659 370.552 138.175 358.834C141.26 356.881 143.444 353.782 144.245 350.219C145.046 346.656 144.399 342.921 142.446 339.835C140.532 336.81 137.65 334.832 134.512 333.993C131.403 333.028 128.521 331.049 126.655 328.102C124.702 325.016 124.055 321.28 124.856 317.718C125.658 314.155 127.841 311.056 130.927 309.103L144.657 300.414C154.943 293.904 162.222 283.575 164.892 271.698C167.562 259.821 165.405 247.37 158.895 237.084C137.197 202.799 88.363 194.813 49.8115 219.211Z" fill="#222222"/>
</g>
<defs>
<clipPath id="clip0_4_48">
<rect width="500" height="390" fill="white"/>
</clipPath>
</defs>
</svg>
