<svg width="21" height="20" viewBox="0 0 21 20" fill="none" xmlns="http://www.w3.org/2000/svg">
<path fill-rule="evenodd" clip-rule="evenodd" d="M4.01 18C4.01 16.9 4.9 16 6 16C7.1 16 8 16.9 8 18C8 19.1 7.1 20 6 20C4.9 20 4.01 19.1 4.01 18ZM2 2H1C0.45 2 0 1.55 0 1C0 0.450003 0.45 1.27994e-06 1 1.27994e-06H2.64C2.82867 -0.000301581 3.01352 0.0531488 3.17291 0.154096C3.3323 0.255043 3.45963 0.399309 3.54 0.570003L4.21 2H19.01C19.1834 2.00009 19.3538 2.04546 19.5043 2.13162C19.6549 2.21778 19.7803 2.34175 19.8681 2.49126C19.956 2.64077 20.0034 2.81064 20.0054 2.98406C20.0075 3.15747 19.9643 3.32843 19.88 3.48L16.3 9.97C15.96 10.59 15.3 11 14.55 11H7.1L6 13H17C17.55 13 18 13.45 18 14C18 14.55 17.55 15 17 15H6C4.48 15 3.52 13.37 4.25 12.03L5.6 9.59L2 2ZM14.01 18C14.01 16.9 14.9 16 16 16C17.1 16 18 16.9 18 18C18 19.1 17.1 20 16 20C14.9 20 14.01 19.1 14.01 18ZM5.07127 4.64254L6.84538 8.19077C7.24658 8.99315 8.06667 9.5 8.96376 9.5H13.1396C13.982 9.5 14.761 9.05258 15.1854 8.32496L17.3074 4.68727C17.6144 4.16096 17.2348 3.5 16.6255 3.5H5.7774C5.19052 3.5 4.80881 4.11762 5.07127 4.64254Z" fill="black"/>
</svg>
